<svg id="Layer_1" data-name="Layer 1" xmlns="http://www.w3.org/2000/svg" viewBox="0 0 141.7324 52.8701"><defs><style>.cls-1{fill:#fff;}</style></defs><title>kealogo2</title><path class="cls-1" d="M101.3583,11.4367H87.5937v3.4561h13.5717c4.6636,0,6.0916,1.47,6.4284,3.7581h-13.92c-5.17,0-7.4779,2.0032-7.4779,6.4949,0,4.53,2.3367,6.5493,7.5749,6.5493h17.2667v-11.58c0-5.8389-3.163-8.6788-9.68-8.6788m6.3126,16.8023H94.14c-4.2485,0-4.4264-.9492-4.4264-3.0932,0-2.063.4416-3.0355,4.4984-3.0355h13.4593Z"/><path class="cls-1" d="M60.924,24.32h13.81c5.1684,0,7.4724-1.9783,7.4724-6.4129,0-4.5367-2.26-6.4706-7.57-6.4706H67.2421c-8.723,0-9.9233,4.868-9.9233,10.1278,0,5.2631,1.2,10.1306,9.9233,10.1306H81.38V28.2623H67.4832c-4.7644,0-6.1248-1.274-6.5592-3.9421m6.5592-9.5288H74.27c4.0058,0,4.4258.9493,4.4258,3.1159,0,2.0569-.425,2.9573-4.4984,2.9573H60.745c.1009-4.2723,1.223-6.0732,6.7382-6.0732"/><polygon class="cls-1" points="50.603 11.435 34.153 27.172 34.153 11.435 30.737 11.435 30.737 31.699 34.342 31.699 42.24 24.134 51.221 31.699 56.619 31.699 44.771 21.781 55.54 11.435 50.603 11.435"/><path class="cls-1" d="M31.5164,36.8989v1.6957h.0122l1.0888-1.6957h.9337L32.39,38.7132l1.2928,2.42h-.97l-.88-1.7373-.3169.48v1.2574h-.8617V36.8989Z"/><path class="cls-1" d="M34.2443,40.8953a2.5433,2.5433,0,0,1-.466-1.88c0-1.2872.1607-2.2,1.4535-2.2a1.5865,1.5865,0,0,1,.7242.1429l.1552-.3629.2882.1247-.1813.4155a2.531,2.531,0,0,1,.4683,1.88c0,1.2867-.1612,2.2-1.4546,2.2a1.5819,1.5819,0,0,1-.7237-.1423l-.1552.3613-.2875-.1242ZM35.65,37.6581a.4366.4366,0,0,0-.4184-.2139c-.5076,0-.5918.4389-.5918,1.5715a6.9364,6.9364,0,0,0,.036.8778h.0111Zm-.8373,2.7108a.4242.4242,0,0,0,.4189.2189c.51,0,.5929-.4328.5929-1.5721a7.26,7.26,0,0,0-.036-.8777h-.0128Z"/><path class="cls-1" d="M37.1956,36.8989h1.4413c.7054,0,1.2147.26,1.2147,1.0729a.8859.8859,0,0,1-.6456.9259v.0111a.8989.8989,0,0,1,.7775.9847c0,.6638-.33,1.24-1.3344,1.24H37.1956Zm.8606,1.7378h.2455c.4732,0,.6882-.1607.6882-.558,0-.404-.1978-.5513-.6217-.5513h-.312Zm0,1.8679h.3364c.4117,0,.6926-.1484.6926-.6416,0-.4915-.2809-.6334-.6577-.6334h-.3713Z"/><path class="cls-1" d="M42.9092,36.8989v.6994H41.3838v.9963H42.82v.7H41.3838v1.1387h1.5847v.6994H40.5221V36.8989Z"/><path class="cls-1" d="M44.3937,36.8989l1.0407,2.8992h.0122V36.8989h.79v4.2342h-.9825l-1.0517-2.9657H44.19v2.9657H43.4V36.8989Z"/><path class="cls-1" d="M46.8347,36.8989h.8622v1.6175H48.701V36.8989h.8617v4.2342H48.701V39.2523H47.6969v1.8808h-.8622Z"/><path class="cls-1" d="M50.994,36.8989h1.0639l1.1315,4.2342h-.8965l-.1989-.8961H50.9574l-.1978.8961H49.863Zm.1136,2.6377h.8367l-.4117-1.9029H51.52Z"/><path class="cls-1" d="M54.0761,36.8989l.604,3.132h.0177l.6345-3.132h.891l-.9819,4.2342H54.1353l-.9808-4.2342Z"/><path class="cls-1" d="M57.5338,36.8989l1.0418,2.8992h.0122V36.8989h.79v4.2342h-.9819l-1.0528-2.9657h-.0122v2.9657h-.79V36.8989Z"/><path class="cls-1" d="M60.6685,39.81v.1247c0,.3979.1142.6528.57.6528a.49.49,0,0,0,.5137-.5214c0-.3863-.1967-.53-.7658-.7243-.7659-.2615-1.1177-.5757-1.1177-1.2817A1.1658,1.1658,0,0,1,61.19,36.8153c.7658,0,1.3216.3258,1.3216,1.1387v.118h-.8257c0-.3973-.1363-.6278-.4655-.6278a.4386.4386,0,0,0-.4909.4921c0,.2615.0776.4211.4433.5746l.6627.2854a1.0811,1.0811,0,0,1,.8146,1.12c0,.8966-.5513,1.2994-1.484,1.2994-.9752,0-1.3587-.451-1.3587-1.2329V39.81Z"/><path class="cls-1" d="M66.9041,36.8989v.6994H65.3787v.9963h1.4357v.7H65.3787v1.1387H66.964v.6994H64.5175V36.8989Z"/><path class="cls-1" d="M67.3957,36.8989h1.5909A1.0077,1.0077,0,0,1,70.1237,37.99a.928.928,0,0,1-.7121,1.0435v.0121c.5863.0765.6749.3979.6888,1.2928.0055.4445.0288.6772.1912.7592v.0355h-.9337a.8117.8117,0,0,1-.1081-.4445l-.0239-.8129c-.0121-.3336-.1607-.5336-.5081-.5336h-.46v1.791h-.8616Zm.8616,1.85h.358c.414,0,.6467-.179.6467-.6356a.5275.5275,0,0,0-.5985-.5862h-.4062Z"/><path class="cls-1" d="M70.7221,36.8989h.8617v1.6175H72.59V36.8989h.8617v4.2342H72.59V39.2523H71.5838v1.8808h-.8617Z"/><path class="cls-1" d="M74.69,36.8989l.6041,3.132h.0177l.6345-3.132h.891l-.9808,4.2342H74.75l-.9824-4.2342Z"/><path class="cls-1" d="M79.5422,36.8989v.6994H78.0161v.9963h1.4352v.7H78.0161v1.1387H79.602v.6994H77.1544V36.8989Z"/><path class="cls-1" d="M80.0326,36.8989h1.592A1.0075,1.0075,0,0,1,82.7617,37.99c0,.5625-.2272.942-.7115,1.0435v.0121c.5857.0765.6755.3979.6871,1.2928.0055.4445.03.6772.1923.7592v.0355h-.9348a.8255.8255,0,0,1-.107-.4445l-.0238-.8129c-.0122-.3336-.1619-.5336-.5082-.5336h-.4616v1.791h-.8616Zm.8616,1.85h.36c.4118,0,.6456-.179.6456-.6356a.5277.5277,0,0,0-.5985-.5862h-.4073Z"/><path class="cls-1" d="M84.0007,36.8989l.604,3.132h.0177l.6345-3.132h.8916l-.9808,4.2342H84.06l-.9808-4.2342Z"/><path class="cls-1" d="M87.1592,39.81v.1247c0,.3979.1142.6528.5686.6528a.49.49,0,0,0,.5153-.5214c0-.3863-.1978-.53-.7658-.7243-.7658-.2615-1.1193-.5757-1.1193-1.2817A1.1668,1.1668,0,0,1,87.68,36.8153c.7658,0,1.3228.3258,1.3228,1.1387v.118h-.8263c0-.3973-.138-.6278-.4666-.6278a.4385.4385,0,0,0-.49.4921c0,.2615.0781.4211.4421.5746l.665.2854a1.0847,1.0847,0,0,1,.8146,1.12c0,.8966-.5525,1.2994-1.4851,1.2994-.9753,0-1.3582-.451-1.3582-1.2329V39.81Z"/><path class="cls-1" d="M90.4031,36.8989h1.0651l1.1309,4.2342h-.8977l-.1983-.8961h-1.136l-.1978.8961h-.8977Zm.1136,2.6377h.8373l-.4123-1.9029H90.93Z"/><path class="cls-1" d="M93.7545,36.8989v1.6957h.0111l1.09-1.6957h.9337l-1.1609,1.8143,1.2923,2.42h-.9692l-.88-1.7373-.317.48v1.2574h-.8617V36.8989Z"/><path class="cls-1" d="M96.9379,36.8989H98.003l1.1315,4.2342h-.8977l-.1989-.8961H96.902l-.1985.8961h-.896Zm.1136,2.6377h.8379l-.4129-1.9029h-.0127Z"/><path class="cls-1" d="M99.4759,36.8989h1.4113c1.197,0,1.413.8124,1.413,2.0581,0,1.5-.323,2.1761-1.4667,2.1761H99.4759Zm.8611,3.6057h.3829c.5985,0,.7187-.3739.7187-1.5243,0-.9609-.0793-1.4529-.737-1.4529h-.3646Z"/><path class="cls-1" d="M105.2549,36.8989v.6994h-1.5261v.9963h1.4374v.7h-1.4374v1.1387h1.5859v.6994h-2.4476V36.8989Z"/><path class="cls-1" d="M105.7647,36.8989h1.28l.61,2.989h.0122l.6162-2.989h1.2745v4.2342h-.7908V37.7518h-.011l-.76,3.3813h-.6694l-.76-3.3813h-.0127v3.3813h-.7885Z"/><path class="cls-1" d="M110.216,41.1331V36.8989h.8617v4.2342Z"/></svg>
