<svg xmlns="http://www.w3.org/2000/svg" viewBox="0 0 55 55">
  <defs>
    <style>
      .cls-1 {
        fill: #fff;
      }
    </style>
  </defs>
  <path id="Path_145" data-name="Path 145" class="cls-1" d="M27.5,0A27.5,27.5,0,1,0,55,27.5,27.581,27.581,0,0,0,27.5,0ZM8.25,27.5a19.365,19.365,0,0,1,3.025-10.45L37.95,43.725A19.365,19.365,0,0,1,27.5,46.75,19.132,19.132,0,0,1,8.25,27.5ZM43.725,37.95,17.05,11.275A19.365,19.365,0,0,1,27.5,8.25,19.132,19.132,0,0,1,46.75,27.5,19.365,19.365,0,0,1,43.725,37.95Z"/>
</svg>
