<svg xmlns="http://www.w3.org/2000/svg" viewBox="0 0 55.02 55.02">
  <defs>
    <style>
      .cls-1 {
        fill: #fff;
      }
    </style>
  </defs>
  <path id="Path_125" data-name="Path 125" class="cls-1" d="M19.257,55.02a17.35,17.35,0,0,1-12.838-5.5C1.834,45.391,0,40.806,0,35.763a18.4,18.4,0,0,1,1.376-6.877,15.854,15.854,0,0,1,3.209-5.5l9.17-9.17A11.049,11.049,0,0,1,22.008,11a12.526,12.526,0,0,1,8.712,3.668,11.773,11.773,0,0,1,3.668,9.17,11.049,11.049,0,0,1-3.21,8.253L26.135,36.68a3.5,3.5,0,0,1-2.292.917,4.916,4.916,0,0,1-2.751-.917,6.517,6.517,0,0,1-.917-2.751,6.517,6.517,0,0,1,.917-2.751l5.044-5.044a2.772,2.772,0,0,0,1.375-2.751,5.6,5.6,0,0,0-1.834-4.127,5.344,5.344,0,0,0-3.209-.917,6.627,6.627,0,0,0-3.21.917l-9.628,9.17a12.685,12.685,0,0,0-2.292,7.336c0,3.21,1.376,5.961,3.668,8.711a9.513,9.513,0,0,0,4.585,2.751,7.926,7.926,0,0,0,4.585.459c1.376-.458,2.751-.459,3.668-.917a9.592,9.592,0,0,0,2.751-1.834l18.34-18.34A10.056,10.056,0,0,0,48.143,18.8c0-3.21-1.375-5.961-4.126-8.712-2.292-1.376-3.668-2.293-5.5-2.751H34.388c-.917,0-2.292.917-3.209,1.375a5.815,5.815,0,0,1-2.751.458,3.046,3.046,0,0,1-2.292-1.834c-.458-.459-.458-1.376-.458-2.751A8.049,8.049,0,0,1,27.51,2.293,18.058,18.058,0,0,1,36.68,0,16.974,16.974,0,0,1,48.6,4.585C52.728,8.712,55.02,13.3,55.02,18.34s-1.375,9.628-5.044,13.3l-18.34,18.34A16.931,16.931,0,0,1,19.257,55.02Z"/>
</svg>
